<?xml version="1.0" encoding="UTF-8"?>
<svg width="256px" height="256px" viewBox="0 0 256 256" version="1.1" xmlns="http://www.w3.org/2000/svg" xmlns:xlink="http://www.w3.org/1999/xlink">
    <!-- Generator: Sketch 53.2 (72643) - https://sketchapp.com -->
    <title>icon</title>
    <desc>Created with Sketch.</desc>
    <g id="icon" stroke="none" stroke-width="1" fill="none" fill-rule="evenodd">
        <rect id="Rectangle" stroke="#979797" fill="#6EA644" x="-42.5" y="-49.5" width="340" height="367"></rect>
        <g id="Icon" transform="translate(62.000000, 62.000000)" fill="#FFFFFF" fill-rule="nonzero">
            <path d="M110,1.29411765 C115.5,1.29411765 120.698039,3.45098039 124.623529,7.37647059 C128.54902,11.3019608 130.705882,16.5 130.705882,22 L130.705882,110 C130.705882,115.5 128.54902,120.698039 124.623529,124.623529 C120.698039,128.54902 115.5,130.705882 110,130.705882 L22,130.705882 C16.5,130.705882 11.3019608,128.54902 7.37647059,124.623529 C3.45098039,120.698039 1.29411765,115.5 1.29411765,110 L1.29411765,22 C1.29411765,16.5 3.45098039,11.3019608 7.37647059,7.37647059 C11.3019608,3.45098039 16.5,1.29411765 22,1.29411765 L110,1.29411765 L110,1.29411765 Z M110,0 L22,0 C9.9,0 0,9.9 0,22 L0,110 C0,122.1 9.9,132 22,132 L110,132 C122.1,132 132,122.1 132,110 L132,22 C132,9.9 122.1,0 110,0 Z" id="Shape"></path>
            <path d="M112.362393,51.9570783 C110.695123,50.8177711 108.427637,51.2868976 107.293893,52.9623494 C100.691506,62.9480422 86.6864416,63.4841867 85.952843,63.4841867 C85.8194614,63.4841867 85.7527707,63.4841867 85.6193891,63.4841867 C68.3464764,63.4841867 61.744089,78.2951807 61.4773258,78.8983434 C60.6770365,80.7748494 61.5440166,82.9194277 63.3446678,83.7236446 C63.8115032,83.9246988 64.3450295,84.0587349 64.811865,84.0587349 C66.2123714,84.0587349 67.5461871,83.2545181 68.1464041,81.8471386 C68.2130949,81.7131024 72.7480681,71.5263554 84.418955,70.8561747 L84.418955,89.8222892 C83.9521195,93.9103916 82.0180868,97.127259 78.6168569,99.5399096 C75.0822455,102.019578 70.3471999,103.292922 64.5451018,103.292922 C57.6092605,103.292922 51.940544,100.880271 47.7390247,96.121988 C43.4708146,91.3637048 41.3367095,84.5948795 41.3367095,75.8825301 L41.4034003,54.9728916 C41.7368542,47.2658133 43.8042685,41.1671687 47.7390247,36.810994 C52.0072347,32.0527108 57.6092605,29.6400602 64.5451018,29.6400602 C70.3471999,29.6400602 75.0822455,30.9134036 78.6168569,33.3930723 C82.1514684,35.872741 84.1521919,39.2906627 84.4856458,43.7138554 C84.4856458,43.8478916 84.4856458,44.0489458 84.4856458,44.1829819 C84.4856458,46.7296687 86.5530601,48.8072289 89.0873098,48.8072289 C91.6215595,48.8072289 93.6889738,46.7296687 93.6889738,44.1829819 C93.6889738,44.0489458 93.6889738,43.8478916 93.6889738,43.7138554 C93.022066,37.0790663 90.0209807,31.8516566 84.6190274,27.8975904 C79.217074,23.9435241 72.481305,22 64.3450295,22 C54.674866,22 46.8720445,25.2168675 40.9365648,31.5835843 C35.3345391,37.5481928 32.4001447,45.3893072 32.0666908,55.0399096 C32.0666908,55.7100904 32,56.3802711 32,57.0504518 L32.0666908,75.8825301 L32,75.8825301 C32,86.5384036 35.0010852,95.0496988 40.9365648,101.416416 C46.8720445,107.783133 54.674866,111 64.3450295,111 C72.481305,111 79.217074,109.056476 84.6190274,105.10241 C89.5541453,101.483434 92.4885397,96.7251506 93.4889014,90.8275602 L93.6889738,69.7838855 C99.757835,68.309488 108.027492,64.9585843 113.229373,57.0504518 C114.563189,55.375 114.096353,53.0963855 112.362393,51.9570783 Z" id="Path" stroke="#FFFFFF"></path>
        </g>
    </g>
</svg>